<?xml version="1.0" encoding="UTF-8"?>
<svg width="120" height="40" viewBox="0 0 120 40" fill="none" xmlns="http://www.w3.org/2000/svg">
  <path d="M5,18 L10,32 L15,18 L20,18 L12,38 L8,38 L0,18 L5,18 Z" fill="#4CAF50"/>
  <path d="M21,18 L25,18 L25,38 L21,38 L21,18 Z M21,10 L25,10 L25,14 L21,14 L21,10 Z" fill="#4CAF50"/>
  <path d="M28,18 L32,18 L32,20 C33,18.5 35,17.5 37,17.5 C41,17.5 43,20 43,24 L43,38 L39,38 L39,25 C39,22.5 38,21 36,21 C33.5,21 32,23 32,26 L32,38 L28,38 L28,18 Z" fill="#4CAF50"/>
  <path d="M46,27.5 C46,22 50,17.5 55.5,17.5 C60,17.5 63,20.5 63,26 L63,28 L50,28 C50.5,31 53,32.5 55.5,32.5 C57.5,32.5 58.5,32 60,30.5 L62,33 C60,35 58,36 55,36 C49.5,36 46,32 46,27.5 Z M50,25 L59,25 C59,22.5 57.5,21 55.5,21 C53,21 50.5,22.5 50,25 Z" fill="#4CAF50"/>
  <path d="M65,35 L68,32.5 C69.5,34 71,35 73.5,35 C75.5,35 77,34 77,32.5 C77,31 76,30.5 73.5,30 L71.5,29.5 C68,28.5 66,27 66,24 C66,20.5 69,17.5 73.5,17.5 C76.5,17.5 79,18.5 81,20.5 L78.5,23 C77,21.5 75.5,21 73.5,21 C71.5,21 70,22 70,23.5 C70,25 71,25.5 73.5,26 L75.5,26.5 C79.5,27.5 81,29 81,32 C81,35.5 78,38.5 73.5,38.5 C70,38.5 67,37.5 65,35 Z" fill="#4CAF50"/>
  <path d="M84,27.5 C84,22 88,17.5 93.5,17.5 C99,17.5 103,22 103,27.5 C103,33 99,37.5 93.5,37.5 C88,37.5 84,33 84,27.5 Z M99,27.5 C99,24 96.5,21 93.5,21 C90.5,21 88,24 88,27.5 C88,31 90.5,34 93.5,34 C96.5,34 99,31 99,27.5 Z" fill="#4CAF50"/>
  <path d="M106,18 L110,18 L110,21 L110.1,21 C111,19 113,17.5 115.5,17.5 C116,17.5 116.5,17.5 117,17.5 L117,21.5 C116.5,21.5 116,21.5 115.5,21.5 C112.5,21.5 110,23.5 110,27.5 L110,38 L106,38 L106,18 Z" fill="#4CAF50"/>
  <path d="M10,35 C15,25 35,25 40,35" stroke="#4CAF50" stroke-width="2" fill="none"/>
</svg> 